<svg width="50" height="50" viewBox="0 0 50 50" fill="none" xmlns="http://www.w3.org/2000/svg">
<g clip-path="url(#clip0_234_2410)">
<path d="M49.9989 15.8135C49.9989 14.5772 49.5173 13.4148 48.6431 12.5409L46.3233 10.2211L47.505 9.03936C47.5117 9.03291 47.5183 9.02637 47.5249 9.01982C49.3293 7.21543 49.3293 4.2791 47.5249 2.47412C46.6507 1.5999 45.4883 1.11846 44.2521 1.11846C43.016 1.11846 41.8536 1.5999 40.9792 2.47393C40.9717 2.48135 40.9643 2.48887 40.957 2.49648L39.7779 3.67549L37.4581 1.35557C36.5839 0.481445 35.4217 0 34.1854 0C32.949 0 31.7867 0.481543 30.9125 1.35576C30.4539 1.81455 30.1125 2.34658 29.887 2.91455C29.1677 2.47344 28.3392 2.23701 27.4742 2.23701C26.2378 2.23701 25.0754 2.71846 24.2008 3.59297C22.3968 5.39746 22.3968 8.33369 24.201 10.1385L28.7579 14.6951L14.6937 28.7593L10.1368 24.2024C9.26274 23.3284 8.10044 22.847 6.86431 22.847C5.62798 22.847 4.46558 23.3284 3.59087 24.2028C2.05181 25.7421 1.82661 28.1042 2.91323 29.8855C2.33638 30.1154 1.80649 30.4615 1.35415 30.914C-0.450049 32.7184 -0.450146 35.6545 1.35425 37.4593L3.67388 39.7789L2.4727 40.9801C1.59849 41.8543 1.11694 43.0166 1.11694 44.2529C1.11694 45.4893 1.59849 46.6516 2.47261 47.5255C3.34673 48.3998 4.50913 48.8813 5.74556 48.8813C6.97075 48.8813 8.12319 48.4084 8.99458 47.5491C9.00269 47.5414 9.01069 47.5336 9.0186 47.5256L10.2196 46.3246L12.5394 48.6444C13.4133 49.5185 14.5756 49.9998 15.8121 49.9999H15.8123C17.0487 49.9999 18.2112 49.5184 19.0856 48.6439C19.5441 48.1854 19.8855 47.6534 20.111 47.0857C20.83 47.5266 21.6583 47.7629 22.5231 47.763H22.5233C23.7594 47.763 24.922 47.2815 25.7964 46.4072C26.6706 45.533 27.1519 44.3707 27.1519 43.1344C27.1519 41.8979 26.6705 40.7356 25.7963 39.8616L21.2394 35.3047L35.304 21.2406L39.8608 25.7972C40.735 26.6713 41.8973 27.1526 43.1335 27.1527H43.1338C44.3698 27.1527 45.5322 26.6713 46.4062 25.7973C47.2807 24.9231 47.7623 23.7607 47.7624 22.5243C47.7624 21.6601 47.5263 20.8324 47.086 20.1136C47.6621 19.8838 48.1914 19.538 48.6434 19.0861C49.5175 18.212 49.9989 17.0497 49.9989 15.8135ZM6.96675 45.4342C6.96001 45.4407 6.95317 45.4475 6.94644 45.4542C6.62573 45.7749 6.19927 45.9517 5.74556 45.9517C5.29185 45.9517 4.86519 45.7749 4.54419 45.4539C4.22339 45.1331 4.04663 44.7066 4.04663 44.2529C4.04663 43.7992 4.22339 43.3726 4.54429 43.0517L5.74526 41.8507L8.1479 44.253L6.96675 45.4342ZM41.8496 5.74717L43.0498 4.54707C43.0554 4.54141 43.0609 4.53584 43.0664 4.53018C43.3857 4.21914 43.8058 4.04814 44.2522 4.04814C44.7059 4.04814 45.1326 4.2249 45.4532 4.54551C46.1109 5.20352 46.1157 6.271 45.4671 6.93438C45.4621 6.93926 45.457 6.94424 45.4521 6.94922L44.2519 8.14941L43.0508 6.94824L41.8496 5.74717ZM32.9843 3.42715C33.305 3.10635 33.7316 2.92969 34.1854 2.92969C34.6392 2.92969 35.0657 3.10635 35.3866 3.42725L40.9792 9.01992L43.2161 11.2569C43.2163 11.2571 43.2165 11.2573 43.2167 11.2575L46.5717 14.6126C46.8925 14.9334 47.0693 15.3599 47.0693 15.8135C47.0693 16.2672 46.8925 16.6939 46.5718 17.0146C46.2508 17.3355 45.8242 17.5123 45.3704 17.5123C44.9174 17.5123 44.4916 17.336 44.1709 17.0163L32.9818 5.82744C32.3221 5.16494 32.3227 4.08887 32.9843 3.42715ZM17.0138 46.5725C16.6928 46.8934 16.2661 47.0702 15.8121 47.0702C15.3583 47.0701 14.9316 46.8935 14.6109 46.5729L11.256 43.218C11.2557 43.2177 11.2555 43.2174 11.2553 43.2172L10.5435 42.5055L3.42603 35.3879C2.76382 34.7255 2.76372 33.6479 3.42603 32.9855C3.74692 32.6644 4.17349 32.4876 4.6273 32.4876C5.08042 32.4876 5.5063 32.664 5.8271 32.9842L17.0199 44.177C17.6754 44.8399 17.6737 45.9125 17.0138 46.5725ZM24.222 43.1344C24.222 43.5881 24.0454 44.0149 23.7247 44.3356C23.4037 44.6565 22.977 44.8333 22.5231 44.8333C22.5231 44.8333 22.5231 44.8333 22.523 44.8333C22.0692 44.8333 21.6424 44.6565 21.3216 44.3357L19.0978 42.1119C19.0935 42.1076 19.0896 42.103 19.0853 42.0987L7.89985 30.9138L7.89956 30.9135L5.66274 28.6767C5.00044 28.0145 5.00044 26.9368 5.66255 26.2745C5.98364 25.9535 6.4105 25.7767 6.8644 25.7767C7.31802 25.7767 7.74448 25.9533 8.06519 26.274L13.657 31.8656C13.6573 31.866 13.6576 31.8664 13.658 31.8668L17.8523 36.0609L23.7249 41.9334C24.0455 42.2541 24.222 42.6806 24.222 43.1344ZM19.1676 33.2332L17.9664 32.0321L16.7653 30.8309L30.8295 16.7666L33.2323 19.1691L19.1676 33.2332ZM44.3346 23.7255C44.0137 24.0464 43.5873 24.2231 43.1336 24.2231C42.6798 24.2231 42.253 24.0464 41.9321 23.7256L36.3433 18.137C36.342 18.1357 36.3411 18.1344 36.3398 18.1331L31.8654 13.6591C31.8647 13.6584 31.8639 13.6578 31.8633 13.6571L26.2729 8.06699C25.6107 7.40449 25.6107 6.32656 26.2726 5.66426C26.5936 5.34326 27.0204 5.1665 27.4743 5.1665C27.928 5.1665 28.3547 5.34326 28.6756 5.66416L30.9062 7.89463C30.9083 7.89678 30.9102 7.89912 30.9124 7.90117L42.0979 19.0863C42.099 19.0874 42.1 19.0884 42.101 19.0893L44.3348 21.323C44.6557 21.6439 44.8326 22.0705 44.8326 22.5243C44.8325 22.9781 44.6557 23.4046 44.3346 23.7255Z" fill="#02B0AF"/>
</g>
<defs>
<clipPath id="clip0_234_2410">
<rect width="50" height="50" fill="white"/>
</clipPath>
</defs>
</svg>
