<svg width="50" height="50" viewBox="0 0 50 50" fill="none" xmlns="http://www.w3.org/2000/svg">
<path d="M48.4131 5.62146H7.03125V11.8136H1.53809V30.3521H15.4083V35.2534C14.0945 35.688 13.054 36.7282 12.6194 38.042H1.53809V40.7886H12.6194C13.197 42.535 14.8441 43.799 16.7816 43.799C19.1989 43.799 21.1653 41.8326 21.1653 39.4153C21.1653 37.4778 19.9013 35.8313 18.1549 35.2534V30.3521H39.4896V27.6857H46.6104V16.9769C47.7499 15.2216 48.4131 13.1296 48.4131 10.8857V5.62146ZM16.7816 41.0524C15.879 41.0524 15.1445 40.3179 15.1445 39.4153C15.1445 38.5126 15.879 37.7782 16.7816 37.7782C17.6843 37.7782 18.4187 38.5126 18.4187 39.4153C18.4187 40.3179 17.6843 41.0524 16.7816 41.0524ZM9.77783 8.36804H45.6665V10.8857C45.6665 15.5552 41.8674 19.3544 37.1979 19.3544H9.77783V8.36804ZM4.28467 27.6056V14.5602H7.03125V22.101H36.743V27.6056H4.28467ZM39.4896 24.9391V21.8652C41.1006 21.5293 42.5858 20.8467 43.8638 19.8988V24.9391H39.4896Z" fill="#02B0AF"/>
<path d="M12.5127 11.0688H15.2593V13.8154H12.5127V11.0688Z" fill="#02B0AF"/>
</svg>
