<svg width="50" height="50" viewBox="0 0 50 50" fill="none" xmlns="http://www.w3.org/2000/svg">
<path d="M2.5 48.3334H0.833333C0.373096 48.3334 0 48.7065 0 49.1667C0 49.6269 0.373096 50 0.833333 50H2.5C2.96024 50 3.33333 49.6269 3.33333 49.1667C3.33333 48.7065 2.96024 48.3334 2.5 48.3334Z" fill="#02B0AF"/>
<path d="M46.6003 4.24165C46.202 1.82693 44.1143 0.0554199 41.667 0.0554199C39.2196 0.0554199 37.132 1.82693 36.7336 4.24165C34.6279 4.64653 33.1734 6.58344 33.3716 8.71852C33.5698 10.8536 35.3561 12.4896 37.5003 12.5H42.5003C42.9605 12.5 43.3336 12.1269 43.3336 11.6666C43.3336 11.2064 42.9605 10.8333 42.5003 10.8333H37.5003C36.2808 10.8109 35.2556 9.91173 35.0741 8.70562C34.8927 7.49952 35.6081 6.33853 36.767 5.95832C36.9074 6.69859 37.2152 7.39694 37.667 7.99998C37.8244 8.20982 38.0713 8.33332 38.3336 8.33332C38.6493 8.33332 38.9378 8.15498 39.079 7.87266C39.2202 7.59034 39.1897 7.2525 39.0003 6.99998C38.1799 5.91177 38.1045 4.43375 38.81 3.26774C39.5155 2.10174 40.8598 1.48264 42.2044 1.70442C43.5491 1.9262 44.6233 2.94418 44.917 4.27498C44.0626 4.46558 43.2899 4.92043 42.7086 5.57498C42.4565 5.92394 42.5117 6.40751 42.8359 6.6907C43.1602 6.97389 43.6468 6.96346 43.9586 6.66665C44.7235 5.81149 45.9724 5.58675 46.9874 6.12159C48.0025 6.65643 48.5232 7.81354 48.2503 8.92795C47.9774 10.0424 46.981 10.828 45.8336 10.8333C45.3734 10.8333 45.0003 11.2064 45.0003 11.6666C45.0003 12.1269 45.3734 12.5 45.8336 12.5C47.9779 12.4896 49.7642 10.8536 49.9624 8.71852C50.1606 6.58344 48.706 4.64653 46.6003 4.24165Z" fill="#02B0AF"/>
<path d="M9.99966 15C9.99966 14.5398 9.62656 14.1667 9.16632 14.1667H4.16632C2.94685 14.1442 1.92157 13.2451 1.74014 12.039C1.55871 10.8329 2.27409 9.67191 3.43299 9.29169C3.57342 10.032 3.88126 10.7303 4.33299 11.3334C4.49037 11.5432 4.73736 11.6667 4.99966 11.6667C5.3153 11.6667 5.60385 11.4884 5.74501 11.206C5.88617 10.9237 5.85571 10.5859 5.66632 10.3334C4.8459 9.24515 4.77055 7.76712 5.47605 6.60112C6.18154 5.43512 7.52577 4.81601 8.87043 5.03779C10.2151 5.25957 11.2893 6.27756 11.583 7.60836C10.7286 7.79895 9.95593 8.2538 9.37466 8.90836C9.12252 9.25731 9.1777 9.74088 9.50196 10.0241C9.82622 10.3073 10.3128 10.2968 10.6247 10C11.3896 9.14486 12.6384 8.92012 13.6534 9.45496C14.6685 9.98981 15.1892 11.1469 14.9163 12.2613C14.6434 13.3757 13.647 14.1614 12.4997 14.1667C12.0394 14.1667 11.6663 14.5398 11.6663 15C11.6663 15.4603 12.0394 15.8334 12.4997 15.8334C14.6439 15.823 16.4302 14.187 16.6284 12.0519C16.8266 9.91681 15.372 7.9799 13.2663 7.57502C12.868 5.16031 10.7803 3.38879 8.33299 3.38879C5.88564 3.38879 3.79797 5.16031 3.39966 7.57502C1.29396 7.9799 -0.160631 9.91681 0.0375811 12.0519C0.235793 14.187 2.02208 15.823 4.16632 15.8334H9.16632C9.62656 15.8334 9.99966 15.4603 9.99966 15Z" fill="#02B0AF"/>
<path d="M40.8333 37.5V33.3333C40.8333 32.8731 40.4602 32.5 40 32.5C39.5398 32.5 39.1667 32.8731 39.1667 33.3333V37.5H35.8333C35.3731 37.5 35 37.8731 35 38.3333C35 38.7936 35.3731 39.1667 35.8333 39.1667H39.1667C40.0871 39.1667 40.8333 38.4205 40.8333 37.5Z" fill="#02B0AF"/>
<path d="M45.8333 25H44.1667V22.5C44.1667 19.7386 41.9281 17.5 39.1667 17.5H34.1667C31.4052 17.5 29.1667 19.7386 29.1667 22.5V37.5C29.1667 40.2614 31.4052 42.5 34.1667 42.5H35.8333V48.3333H24.7833C24.9509 47.816 24.9509 47.259 24.7833 46.7417L22.8333 41.45C22.3583 40.1667 21.8583 39.85 19.1667 37.2417V34.7417C19.7917 35.1417 19.8417 35.1 24.4 36.575C25.6767 36.7924 26.9081 35.9988 27.2374 34.7463C27.5668 33.4938 26.8852 32.1971 25.6667 31.7583C21.2417 30.3417 22.2917 30.925 19.875 28.6417C19.0966 27.9043 18.0639 27.4954 16.9917 27.5H13.5417C12.6929 27.4996 11.8643 27.7583 11.1667 28.2417C8.73333 29.9083 7.95833 30.325 7.34167 31.3667C5.5 34.4417 5.28333 34.7 5.25 34.7583C4.78315 35.963 5.31118 37.325 6.46808 37.9002C7.62498 38.4754 9.0296 38.0744 9.70833 36.975C11.4667 34.1917 11.375 34.2667 11.6667 34V40.55C11.6667 41.6667 11.3667 41.8917 8.875 46.2583C8.52043 46.8929 8.45959 47.6503 8.70833 48.3333H5.83333C5.3731 48.3333 5 48.7064 5 49.1667C5 49.6269 5.3731 50 5.83333 50H49.1667C49.6269 50 50 49.6269 50 49.1667C50 48.7064 49.6269 48.3333 49.1667 48.3333H45V45H45.8333C48.1345 45 50 43.1345 50 40.8333V29.1667C50 26.8655 48.1345 25 45.8333 25ZM30.8333 37.5V22.5C30.8333 20.6591 32.3257 19.1667 34.1667 19.1667H39.1667C41.0076 19.1667 42.5 20.6591 42.5 22.5V37.5C42.5 39.3409 41.0076 40.8333 39.1667 40.8333H34.1667C32.3257 40.8333 30.8333 39.3409 30.8333 37.5ZM11.0417 32.3583C10.1583 32.9667 9.98333 33.3833 8.275 36.1167V36.2C8.05026 36.546 7.60614 36.6755 7.23065 36.5045C6.85517 36.3334 6.6614 35.9133 6.775 35.5167C8.74167 32.3333 8.93333 31.8417 9.55 31.4167L12.1583 29.6083C12.5669 29.3302 13.0475 29.1767 13.5417 29.1667H16.9917C19.05 29.1667 19.575 31.5417 21.8583 32.3083L25.1917 33.375C25.6016 33.5015 25.8485 33.9185 25.7623 34.3387C25.6761 34.759 25.2849 35.0451 24.8583 35C20.3 33.525 20.2167 33.5833 19.6667 33.05C19.1167 32.5167 19.1667 32.6 19.1667 32.5C19.1667 32.0398 18.7936 31.6667 18.3333 31.6667C17.8731 31.6667 17.5 32.0398 17.5 32.5V36.6667H13.3333V32.8667C13.6617 32.7101 14.0051 32.5872 14.3583 32.5C14.8186 32.3941 15.1059 31.9352 15 31.475C14.8941 31.0148 14.4352 30.7275 13.975 30.8333C12.9036 31.1366 11.9054 31.6555 11.0417 32.3583ZM10.325 47.0833C13.6583 41.25 13.3333 42.5 13.3333 38.3333H17.9C20.5333 40.8917 20.9417 41.1417 21.275 42.0333L23.2333 47.2667C23.3461 47.7131 23.0756 48.1664 22.6292 48.2792C22.1827 48.3919 21.7294 48.1214 21.6167 47.675C19.3583 41.6667 20 42.8083 17.9417 40.3583C17.4896 39.8213 16.7494 39.6251 16.0907 39.8677C15.4319 40.1103 14.9958 40.7397 15 41.4417C14.999 41.9911 14.8554 42.531 14.5833 43.0083L11.775 47.9C11.5449 48.3004 11.0337 48.4384 10.6333 48.2083C10.2329 47.9782 10.0949 47.4671 10.325 47.0667V47.0833ZM16.0333 43.8333C16.4442 43.1028 16.6621 42.2797 16.6667 41.4417C18.5417 43.65 17.8917 42.4583 20 48.2L20.05 48.3333H13.3833L16.0333 43.8333ZM43.3333 48.3333H37.5V42.5H38.6917C39.3528 44.015 40.847 44.9958 42.5 45H43.3333V48.3333ZM48.3333 40.8333C48.3333 42.214 47.214 43.3333 45.8333 43.3333H42.5C41.7102 43.3294 40.9686 42.9525 40.5 42.3167C42.6657 41.7174 44.1656 39.7471 44.1667 37.5V26.6667H45.8333C47.214 26.6667 48.3333 27.786 48.3333 29.1667V40.8333Z" fill="#02B0AF"/>
<path d="M15.8333 19.1666C13.9924 19.1666 12.5 20.659 12.5 22.5C12.5 24.3409 13.9924 25.8333 15.8333 25.8333C17.6743 25.8333 19.1667 24.3409 19.1667 22.5C19.1667 20.659 17.6743 19.1666 15.8333 19.1666ZM15.8333 24.1666C14.9129 24.1666 14.1667 23.4204 14.1667 22.5C14.1667 21.5795 14.9129 20.8333 15.8333 20.8333C16.7538 20.8333 17.5 21.5795 17.5 22.5C17.5 23.4204 16.7538 24.1666 15.8333 24.1666Z" fill="#02B0AF"/>
<path d="M22.4997 8.33333C24.8009 8.33333 26.6663 6.46785 26.6663 4.16667C26.6663 1.86548 24.8009 0 22.4997 0C20.1985 0 18.333 1.86548 18.333 4.16667C18.333 6.46785 20.1985 8.33333 22.4997 8.33333ZM22.4997 1.66667C23.8804 1.66667 24.9997 2.78595 24.9997 4.16667C24.9997 5.54738 23.8804 6.66667 22.4997 6.66667C21.119 6.66667 19.9997 5.54738 19.9997 4.16667C19.9997 2.78595 21.119 1.66667 22.4997 1.66667Z" fill="#02B0AF"/>
<path d="M40.0003 30.8333C40.4606 30.8333 40.8337 30.4602 40.8337 30V28.3333C40.8337 27.8731 40.4606 27.5 40.0003 27.5C39.5401 27.5 39.167 27.8731 39.167 28.3333V30C39.167 30.4602 39.5401 30.8333 40.0003 30.8333Z" fill="#02B0AF"/>
</svg>
