<svg width="50" height="50" viewBox="0 0 50 50" fill="none" xmlns="http://www.w3.org/2000/svg">
<path d="M48.7493 42.5001C44.3356 42.5001 41.4815 39.0761 38.4603 35.4493C37.3498 34.1172 36.2196 32.7806 34.9996 31.5826V26.2502C34.9955 22.8001 32.2 20.0046 28.7499 20.0004H27.4998V12.5005H28.7499C29.2914 12.501 29.7716 12.1522 29.9387 11.6372C30.1062 11.1222 29.9227 10.5578 29.4846 10.2397L15.7349 0.239979C15.2973 -0.079993 14.7027 -0.079993 14.2651 0.239979L0.515436 10.2397C0.0773627 10.5578 -0.106198 11.1222 0.0613412 11.6372C0.228422 12.1522 0.70861 12.501 1.25014 12.5005H2.50027V33.7501C2.49981 34.082 2.63165 34.3996 2.86602 34.6345C3.10039 34.8688 3.41853 35.0002 3.74995 35.0002H5.00008V48.7499C5.00008 49.4402 5.55992 50 6.25022 50C6.94051 50 7.49989 49.4402 7.49989 48.7499V44.9999H22.4997V48.7499C22.4997 49.4402 23.0595 50 23.7498 50C24.4401 50 24.9999 49.4402 24.9999 48.7499V35.0002H26.2496C28.928 35.0002 31.0423 37.6026 33.4895 40.6164C36.8856 44.7976 41.1107 50 48.7493 50C49.0812 50 49.3993 49.8686 49.6337 49.6343C49.868 49.3994 49.9999 49.0817 49.9994 48.7499V43.7502C49.9999 43.4184 49.868 43.1002 49.6337 42.8659C49.3993 42.6315 49.0812 42.4997 48.7493 42.5001ZM28.7499 22.5002C30.8199 22.5025 32.4975 24.1802 32.4998 26.2502V29.5181C31.0149 28.4818 29.2978 27.8276 27.4998 27.6138V22.5002H28.7499ZM14.9998 2.79655L24.9061 10.0007H5.09438L14.9998 2.79655ZM5.00008 12.5005H24.9999V27.5003H22.4997V22.5002C22.4997 18.3585 19.142 15.0004 14.9998 15.0004C10.858 15.0004 7.49989 18.3585 7.49989 22.5002V27.5003H5.00008V12.5005ZM19.9999 22.5002V27.5003H10.0002V22.5002C10.0002 19.7391 12.2386 17.5006 14.9998 17.5006C17.7614 17.5006 19.9999 19.7391 19.9999 22.5002ZM5.00008 32.5004V30.0001H24.9999V32.5004H5.00008ZM7.49989 42.5001V40.0003H22.4997V42.5001H7.49989ZM22.4997 37.5H7.49989V35.0002H22.4997V37.5ZM47.4996 47.4439C41.8353 46.9275 38.5839 42.9222 35.4309 39.0404C33.0038 36.0526 30.6967 33.2122 27.4998 32.6153V30.0958C31.2227 30.6708 33.8131 33.7785 36.5391 37.051C39.5456 40.6581 42.6474 44.3787 47.4996 44.9303V47.4439Z" fill="#02B0AF"/>
</svg>
