<svg width="47" height="35" viewBox="0 0 47 35" fill="none" xmlns="http://www.w3.org/2000/svg">
<path d="M42.1875 0H4.6875C3.4443 0 2.25201 0.49386 1.37294 1.37294C0.49386 2.25201 0 3.4443 0 4.6875V29.6875C0 30.9307 0.49386 32.123 1.37294 33.0021C2.25201 33.8811 3.4443 34.375 4.6875 34.375H42.1875C43.4307 34.375 44.623 33.8811 45.5021 33.0021C46.3811 32.123 46.875 30.9307 46.875 29.6875V4.6875C46.875 3.4443 46.3811 2.25201 45.5021 1.37294C44.623 0.49386 43.4307 0 42.1875 0ZM3.125 12.5H6.25V21.875H3.125V12.5ZM21.875 31.25H4.6875C4.2731 31.25 3.87567 31.0854 3.58265 30.7924C3.28962 30.4993 3.125 30.1019 3.125 29.6875V25H7.8125C8.2269 25 8.62433 24.8354 8.91735 24.5424C9.21038 24.2493 9.375 23.8519 9.375 23.4375V10.9375C9.375 10.5231 9.21038 10.1257 8.91735 9.83265C8.62433 9.53962 8.2269 9.375 7.8125 9.375H3.125V4.6875C3.125 4.2731 3.28962 3.87567 3.58265 3.58265C3.87567 3.28962 4.2731 3.125 4.6875 3.125H21.875V11.1563C20.551 11.5161 19.3822 12.3016 18.5489 13.3916C17.7155 14.4815 17.2641 15.8155 17.2641 17.1875C17.2641 18.5595 17.7155 19.8934 18.5489 20.9834C19.3822 22.0734 20.551 22.8589 21.875 23.2188V31.25ZM20.3125 17.1875C20.3125 16.5694 20.4958 15.9652 20.8392 15.4513C21.1825 14.9374 21.6706 14.5369 22.2416 14.3004C22.8126 14.0639 23.441 14.002 24.0472 14.1225C24.6533 14.2431 25.2102 14.5408 25.6472 14.9778C26.0842 15.4148 26.3819 15.9717 26.5025 16.5778C26.623 17.184 26.5611 17.8124 26.3246 18.3834C26.0881 18.9544 25.6876 19.4425 25.1737 19.7858C24.6598 20.1292 24.0556 20.3125 23.4375 20.3125C22.6087 20.3125 21.8138 19.9833 21.2278 19.3972C20.6417 18.8112 20.3125 18.0163 20.3125 17.1875ZM43.75 21.875H40.625V12.5H43.75V21.875ZM43.75 9.375H39.0625C38.6481 9.375 38.2507 9.53962 37.9576 9.83265C37.6646 10.1257 37.5 10.5231 37.5 10.9375V23.4375C37.5 23.8519 37.6646 24.2493 37.9576 24.5424C38.2507 24.8354 38.6481 25 39.0625 25H43.75V29.6875C43.75 30.1019 43.5854 30.4993 43.2924 30.7924C42.9993 31.0854 42.6019 31.25 42.1875 31.25H25V23.2188C26.324 22.8589 27.4928 22.0734 28.3261 20.9834C29.1595 19.8934 29.6109 18.5595 29.6109 17.1875C29.6109 15.8155 29.1595 14.4815 28.3261 13.3916C27.4928 12.3016 26.324 11.5161 25 11.1563V3.125H42.1875C42.6019 3.125 42.9993 3.28962 43.2924 3.58265C43.5854 3.87567 43.75 4.2731 43.75 4.6875V9.375Z" fill="#02B0AF"/>
</svg>
