<svg width="49" height="51" viewBox="0 0 49 51" fill="none" xmlns="http://www.w3.org/2000/svg">
<path d="M48.2081 14.2878C48.04 14.2256 31.7611 7.96554 25.5901 0.93554C25.4405 0.763938 25.2566 0.6255 25.0504 0.529102C24.8441 0.432704 24.62 0.380474 24.3924 0.375762C24.1564 0.368663 23.9215 0.411234 23.703 0.500717C23.4845 0.590199 23.2873 0.724596 23.124 0.895195C16.2361 7.95798 0.684173 14.2332 0.528679 14.2937C0.372713 14.356 0.238991 14.4636 0.144759 14.6027C0.0505268 14.7417 0.000106305 14.9058 0 15.0737V48.694C0 49.1398 0.177106 49.5674 0.492358 49.8826C0.807609 50.1979 1.23518 50.375 1.68101 50.375H47.0684C47.5142 50.375 47.9418 50.1979 48.257 49.8826C48.5723 49.5674 48.7494 49.1398 48.7494 48.694V15.0737C48.7495 14.9033 48.6978 14.7369 48.6011 14.5965C48.5044 14.4562 48.3674 14.3485 48.2081 14.2878ZM43.7064 48.694H39.2979L38.0624 44.3704C38.5249 44.2365 38.9377 43.9693 39.2492 43.6022C39.5607 43.235 39.7571 42.7843 39.814 42.3061L41.1588 35.5728C41.1645 35.5451 41.1684 35.517 41.1706 35.4888C41.2078 35.1609 41.1801 34.8288 41.089 34.5116C40.9979 34.1944 40.8453 33.8982 40.6397 33.6399C40.4342 33.3817 40.1798 33.1665 39.8911 33.0066C39.6024 32.8467 39.285 32.7452 38.9571 32.708C38.6291 32.6707 38.2971 32.6984 37.9799 32.7895C37.6626 32.8806 37.3665 33.0332 37.1082 33.2388C36.5867 33.6539 36.2515 34.2592 36.1763 34.9214L35.0718 39.3282C35.0618 39.3678 35.0542 39.4079 35.0491 39.4484H31.9393C31.2942 39.4467 30.6732 39.6929 30.2045 40.1361C29.7358 40.5793 29.4554 41.1857 29.4212 41.8298C29.387 42.4739 29.6016 43.1066 30.0207 43.597C30.4397 44.0874 31.0312 44.398 31.6728 44.4646L30.4642 48.694H26.8962V38.6079H28.5772C29.246 38.6079 29.8873 38.3422 30.3602 37.8694C30.8331 37.3965 31.0988 36.7551 31.0988 36.0864C31.0988 35.4176 30.8331 34.7763 30.3602 34.3034C29.8873 33.8305 29.246 33.5649 28.5772 33.5649H20.1722C19.5034 33.5649 18.8621 33.8305 18.3892 34.3034C17.9163 34.7763 17.6506 35.4176 17.6506 36.0864C17.6506 36.7551 17.9163 37.3965 18.3892 37.8694C18.8621 38.3422 19.5034 38.6079 20.1722 38.6079H21.8532V48.694H18.2852L17.0766 44.4646C17.7182 44.398 18.3097 44.0874 18.7287 43.597C19.1478 43.1066 19.3624 42.4739 19.3282 41.8298C19.294 41.1857 19.0136 40.5793 18.5449 40.1361C18.0762 39.6929 17.4552 39.4467 16.8101 39.4484H13.7003C13.6958 39.4079 13.6888 39.3678 13.6793 39.3282L12.5748 34.9214C12.4996 34.2592 12.1643 33.6539 11.6428 33.2388C11.1213 32.8237 10.4563 32.6327 9.79401 32.708C9.13172 32.7832 8.52645 33.1184 8.11134 33.6399C7.69624 34.1614 7.5053 34.8265 7.58053 35.4888C7.58267 35.517 7.5866 35.5451 7.5923 35.5728L8.92282 42.2221C8.97212 42.7144 9.16604 43.1811 9.48014 43.5634C9.79425 43.9458 10.2145 44.2265 10.6879 44.3704L9.4515 48.694H5.04304V21.3473C5.54613 21.9871 6.18286 22.5093 6.90874 22.8775C7.63463 23.2456 8.43215 23.4508 9.24558 23.4788C11.7402 23.4788 13.3994 21.6095 14.2886 20.2201C15.1779 21.6095 16.837 23.4788 19.3317 23.4788C21.8263 23.4788 23.4863 21.607 24.3747 20.2159C25.2631 21.607 26.9198 23.4788 29.4177 23.4788C31.9157 23.4788 33.5715 21.6095 34.4608 20.2201C35.35 21.6095 37.0092 23.4788 39.5038 23.4788C40.3173 23.4508 41.1148 23.2456 41.8407 22.8775C42.5665 22.5093 43.2033 21.9871 43.7064 21.3473V48.694ZM37.3185 42.8104H31.9393C31.7163 42.8104 31.5026 42.7219 31.3449 42.5643C31.1873 42.4066 31.0988 42.1928 31.0988 41.9699C31.0988 41.747 31.1873 41.5332 31.3449 41.3756C31.5026 41.218 31.7163 41.1294 31.9393 41.1294H35.0491C35.4537 41.1295 35.8446 40.9837 36.1503 40.7187C36.456 40.4538 36.6559 40.0875 36.7133 39.6871L37.8228 35.2753C37.8332 35.2356 37.8402 35.1951 37.8438 35.1543C37.8598 34.9939 37.9221 34.8417 38.0229 34.716C38.1238 34.5903 38.259 34.4967 38.4121 34.4464C38.5652 34.3961 38.7296 34.3913 38.8854 34.4327C39.0411 34.4741 39.1815 34.5597 39.2895 34.6794C39.3643 34.7608 39.4217 34.8566 39.4584 34.9609C39.4951 35.0652 39.5103 35.1759 39.503 35.2862L38.1582 42.054C38.1373 42.2619 38.0397 42.4545 37.8845 42.5944C37.7292 42.7343 37.5275 42.8113 37.3185 42.8104ZM33.416 44.4915H36.3494L37.5505 48.694H32.2133L33.416 44.4915ZM20.1722 36.9269C19.9493 36.9269 19.7355 36.8383 19.5778 36.6807C19.4202 36.5231 19.3317 36.3093 19.3317 36.0864C19.3317 35.8635 19.4202 35.6497 19.5778 35.4921C19.7355 35.3344 19.9493 35.2459 20.1722 35.2459H28.5772C28.8002 35.2459 29.0139 35.3344 29.1716 35.4921C29.3292 35.6497 29.4177 35.8635 29.4177 36.0864C29.4177 36.3093 29.3292 36.5231 29.1716 36.6807C29.0139 36.8383 28.8002 36.9269 28.5772 36.9269H20.1722ZM11.4309 42.8104C11.2087 42.8056 10.9968 42.7157 10.8389 42.5594C10.681 42.403 10.589 42.1921 10.582 41.9699L9.24558 35.2862C9.23893 35.1729 9.25553 35.0594 9.29436 34.9528C9.33319 34.8461 9.39342 34.7486 9.47136 34.6661C9.5493 34.5836 9.6433 34.5179 9.74757 34.473C9.85184 34.4282 9.96418 34.4052 10.0777 34.4054C10.2842 34.4048 10.4835 34.4812 10.6368 34.6197C10.79 34.7581 10.8861 34.9487 10.9064 35.1543C10.91 35.1951 10.917 35.2356 10.9274 35.2753L12.0327 39.6871C12.0902 40.0881 12.2906 40.4548 12.597 40.7198C12.9034 40.9848 13.2952 41.1303 13.7003 41.1294H16.8101C17.0331 41.1294 17.2468 41.218 17.4045 41.3756C17.5621 41.5332 17.6506 41.747 17.6506 41.9699C17.6506 42.1928 17.5621 42.4066 17.4045 42.5643C17.2468 42.7219 17.0331 42.8104 16.8101 42.8104H11.4309ZM12.4 44.4915H15.3334L16.5345 48.694H11.2006L12.4 44.4915ZM5.59862 19.2762H12.8967C12.2184 20.3538 10.9854 21.7978 9.24558 21.7978C7.50573 21.7978 6.28111 20.3546 5.59862 19.2762ZM15.6847 19.2762H22.9828C22.3045 20.3538 21.0715 21.7978 19.3317 21.7978C17.5918 21.7978 16.3672 20.3546 15.6847 19.2762ZM25.7708 19.2762H33.0689C32.3906 20.3538 31.1576 21.7978 29.4177 21.7978C27.6779 21.7978 26.4533 20.3546 25.7708 19.2762ZM39.5038 21.7978C37.7749 21.7978 36.5394 20.3546 35.8569 19.2762H43.155C42.4767 20.3538 41.2437 21.7978 39.5038 21.7978ZM1.68101 17.5952V15.9142H47.0684V17.5952H1.68101ZM24.326 2.04585C28.8941 7.24775 38.3322 11.8798 43.6904 14.2332H4.901C10.0642 11.884 19.2678 7.25027 24.326 2.04585ZM1.68101 19.2762H3.36203V48.694H1.68101V19.2762ZM23.5342 48.694V38.6079H25.2152V48.694H23.5342ZM45.3874 48.694V19.2762H47.0684V48.694H45.3874Z" fill="#02B0AF"/>
</svg>
