<svg width="71" height="70" viewBox="0 0 71 70" fill="none" xmlns="http://www.w3.org/2000/svg">
<path d="M69.3339 62.1576V34.9997C69.3307 34.8192 69.2847 34.6421 69.1997 34.4829H69.2114L66.3554 28.772C65.7673 27.5814 64.5531 26.8292 63.2252 26.833H55.3338V25.6663C55.3337 25.3569 55.2108 25.0602 54.992 24.8414L48.6756 18.5251C48.2557 18.1096 47.7364 17.8087 47.1671 17.6512V9.78199L49.5004 9.15548V11.9812V11.9893C49.4991 13.1874 50.0979 14.3065 51.0953 14.9702C51.442 15.2015 51.8859 15.2303 52.2596 15.0456C52.6334 14.861 52.8802 14.4909 52.9071 14.0749C52.9341 13.659 52.7371 13.2602 52.3903 13.0289C52.0422 12.7976 51.8332 12.4072 51.8338 11.9893V11.9812V8.42631C52.6504 7.95462 53.1028 7.0377 52.9803 6.10261C52.8578 5.16752 52.1844 4.39813 51.2738 4.15278L36.1 0.0787407C35.7071 -0.0262469 35.2935 -0.0262469 34.9006 0.0787407L19.7268 4.15278C18.7064 4.43137 17.9986 5.35834 17.9986 6.41613C17.9986 7.47391 18.7064 8.40089 19.7268 8.67948L23.8335 9.78199V17.4996H23.76C22.7228 17.5 21.7395 17.9618 21.0767 18.7596L15.9433 24.9196C15.7664 25.1284 15.6686 25.3927 15.6668 25.6663V26.833H7.77539C6.44857 26.8283 5.23455 27.5786 4.6452 28.7673L1.78918 34.4782H1.80084C1.71515 34.6388 1.66915 34.8177 1.66668 34.9997V62.1576C0.947127 62.5711 0.502503 63.3367 0.5 64.1666V66.5C0.5 67.7886 1.54468 68.8333 2.83335 68.8333H18.3245C18.738 69.5529 19.5036 69.9975 20.3335 70H50.6671C51.497 69.9975 52.2626 69.5529 52.6761 68.8333H68.1672C69.4559 68.8333 70.5006 67.7886 70.5006 66.5V64.1666C70.4981 63.3367 70.0535 62.5711 69.3339 62.1576ZM51.8338 61.8333H50.6671V36.1664H67.0006V61.8333H51.8338ZM39.0003 61.8333H32.0003V48.9998H39.0003V61.8333ZM40.167 46.6665H30.8336C30.1892 46.6665 29.6669 47.1888 29.6669 47.8331V61.8333H22.6669V36.1664H48.3337V61.8333H41.3337V47.8331C41.3337 47.1888 40.8113 46.6665 40.167 46.6665ZM53.0004 26.833V29.1663H18.0001V26.833H53.0004ZM50.6671 31.4997V33.833H20.3335V31.4997H50.6671ZM63.2252 29.1663C63.6674 29.1649 64.072 29.4151 64.2682 29.8115L66.2795 33.833H53.0004V31.4997C54.2891 31.4997 55.3338 30.455 55.3338 29.1663H63.2252ZM35.5003 2.33276L50.6834 6.41613H50.6683L35.5061 10.4995L20.3335 6.40679L35.5003 2.33276ZM26.1669 10.4085L34.9006 12.7535C35.2934 12.8593 35.7072 12.8593 36.1 12.7535L44.8337 10.4085V17.4996H26.1669V10.4085ZM22.864 20.2529C23.0856 19.9869 23.4138 19.833 23.76 19.8329H46.1999C46.5097 19.8327 46.8069 19.9556 47.0259 20.1747L51.3508 24.4996H19.3243L22.864 20.2529ZM6.73239 29.8115C6.92859 29.4151 7.33315 29.1649 7.77539 29.1663H15.6668C15.6668 30.455 16.7115 31.4997 18.0001 31.4997V33.833H4.72104L6.73239 29.8115ZM2.83335 64.1666H18.0001V66.5H2.83335V64.1666ZM19.1668 61.8333H4.00003V36.1664H20.3335V61.8333H19.1668ZM20.3335 67.6666V64.1666H50.6671V67.6666H20.3335ZM68.1672 66.5H53.0004V64.1666H68.1672V66.5Z" fill="#02B0AF"/>
<path d="M32.0007 38.4998C31.3563 38.4998 30.834 39.0221 30.834 39.6664V41.9998C30.834 42.6441 31.3563 43.1665 32.0007 43.1665C32.645 43.1665 33.1673 42.6441 33.1673 41.9998V39.6664C33.1673 39.0221 32.645 38.4998 32.0007 38.4998Z" fill="#02B0AF"/>
<path d="M15.6667 39.6665C15.0223 39.6665 14.5 40.1888 14.5 40.8332V43.1665C14.5 43.8109 15.0223 44.3332 15.6667 44.3332C16.311 44.3332 16.8334 43.8109 16.8334 43.1665V40.8332C16.8334 40.1888 16.311 39.6665 15.6667 39.6665Z" fill="#02B0AF"/>
<path d="M8.66668 39.6665C8.02234 39.6665 7.5 40.1888 7.5 40.8332V43.1665C7.5 43.8109 8.02234 44.3332 8.66668 44.3332C9.31101 44.3332 9.83335 43.8109 9.83335 43.1665V40.8332C9.83335 40.1888 9.31101 39.6665 8.66668 39.6665Z" fill="#02B0AF"/>
<path d="M15.6667 46.6665C15.0223 46.6665 14.5 47.1888 14.5 47.8332V50.1665C14.5 50.8109 15.0223 51.3332 15.6667 51.3332C16.311 51.3332 16.8334 50.8109 16.8334 50.1665V47.8332C16.8334 47.1888 16.311 46.6665 15.6667 46.6665Z" fill="#02B0AF"/>
<path d="M8.66668 46.6665C8.02234 46.6665 7.5 47.1888 7.5 47.8332V50.1665C7.5 50.8109 8.02234 51.3332 8.66668 51.3332C9.31101 51.3332 9.83335 50.8109 9.83335 50.1665V47.8332C9.83335 47.1888 9.31101 46.6665 8.66668 46.6665Z" fill="#02B0AF"/>
<path d="M15.6667 53.6665C15.0223 53.6665 14.5 54.1888 14.5 54.8332V57.1665C14.5 57.8109 15.0223 58.3332 15.6667 58.3332C16.311 58.3332 16.8334 57.8109 16.8334 57.1665V54.8332C16.8334 54.1888 16.311 53.6665 15.6667 53.6665Z" fill="#02B0AF"/>
<path d="M8.66668 53.6665C8.02234 53.6665 7.5 54.1888 7.5 54.8332V57.1665C7.5 57.8109 8.02234 58.3332 8.66668 58.3332C9.31101 58.3332 9.83335 57.8109 9.83335 57.1665V54.8332C9.83335 54.1888 9.31101 53.6665 8.66668 53.6665Z" fill="#02B0AF"/>
<path d="M62.3337 39.6665C61.6893 39.6665 61.167 40.1888 61.167 40.8332V43.1665C61.167 43.8109 61.6893 44.3332 62.3337 44.3332C62.978 44.3332 63.5003 43.8109 63.5003 43.1665V40.8332C63.5003 40.1888 62.978 39.6665 62.3337 39.6665Z" fill="#02B0AF"/>
<path d="M55.3337 39.6665C54.6893 39.6665 54.167 40.1888 54.167 40.8332V43.1665C54.167 43.8109 54.6893 44.3332 55.3337 44.3332C55.978 44.3332 56.5003 43.8109 56.5003 43.1665V40.8332C56.5003 40.1888 55.978 39.6665 55.3337 39.6665Z" fill="#02B0AF"/>
<path d="M62.3337 46.6665C61.6893 46.6665 61.167 47.1888 61.167 47.8332V50.1665C61.167 50.8109 61.6893 51.3332 62.3337 51.3332C62.978 51.3332 63.5003 50.8109 63.5003 50.1665V47.8332C63.5003 47.1888 62.978 46.6665 62.3337 46.6665Z" fill="#02B0AF"/>
<path d="M55.3337 46.6665C54.6893 46.6665 54.167 47.1888 54.167 47.8332V50.1665C54.167 50.8109 54.6893 51.3332 55.3337 51.3332C55.978 51.3332 56.5003 50.8109 56.5003 50.1665V47.8332C56.5003 47.1888 55.978 46.6665 55.3337 46.6665Z" fill="#02B0AF"/>
<path d="M62.3337 53.6665C61.6893 53.6665 61.167 54.1888 61.167 54.8332V57.1665C61.167 57.8109 61.6893 58.3332 62.3337 58.3332C62.978 58.3332 63.5003 57.8109 63.5003 57.1665V54.8332C63.5003 54.1888 62.978 53.6665 62.3337 53.6665Z" fill="#02B0AF"/>
<path d="M55.3337 53.6665C54.6893 53.6665 54.167 54.1888 54.167 54.8332V57.1665C54.167 57.8109 54.6893 58.3332 55.3337 58.3332C55.978 58.3332 56.5003 57.8109 56.5003 57.1665V54.8332C56.5003 54.1888 55.978 53.6665 55.3337 53.6665Z" fill="#02B0AF"/>
<path d="M39.0007 38.4998C38.3563 38.4998 37.834 39.0221 37.834 39.6664V41.9998C37.834 42.6441 38.3563 43.1665 39.0007 43.1665C39.645 43.1665 40.1673 42.6441 40.1673 41.9998V39.6664C40.1673 39.0221 39.645 38.4998 39.0007 38.4998Z" fill="#02B0AF"/>
</svg>
