<svg width="71" height="70" viewBox="0 0 71 70" fill="none" xmlns="http://www.w3.org/2000/svg">
<g clip-path="url(#clip0_225_1924)">
<path d="M68.2079 6.35741C66.6984 5.12236 64.7032 4.77891 62.8705 5.43861C52.8798 9.03478 41.8216 7.4076 33.2901 1.08553C31.7253 -0.0740436 29.7157 -0.319877 27.9145 0.427877C25.8699 1.27667 24.3843 3.26795 24.0375 5.62469L21.8146 20.7299C21.7569 21.1222 21.7083 21.5154 21.664 21.9089C17.1418 22.3576 12.5089 21.8329 8.07526 20.2823C6.23671 19.6394 4.24475 20.0007 2.74651 21.2495C1.04577 22.6668 0.218034 25.0093 0.586237 27.3628L2.94613 42.447C3.73996 47.5211 5.65645 52.3766 8.48845 56.4885C11.3407 60.6298 15.0728 63.9473 19.2813 66.0825L24.8437 68.9043C26.2947 69.6403 27.8575 69.9986 29.4083 69.9984C32.003 69.9983 34.5625 68.9951 36.498 67.081L40.9327 62.6951C43.3811 60.2737 45.393 57.3284 46.867 54.0436L52.0812 51.3386C56.2702 49.1653 59.9719 45.8142 62.7864 41.6471C65.581 37.5096 67.4533 32.637 68.201 27.5558L70.4238 12.4507C70.7704 10.0941 69.9213 7.75912 68.2079 6.35741ZM59.387 39.3513C56.9547 42.9527 53.7751 45.8388 50.1919 47.6976L48.772 48.4343C49.7882 44.1705 49.9619 39.6339 49.2683 35.2002L46.9084 20.1159C46.5402 17.7624 45.0367 15.7845 42.9843 14.9545C41.1763 14.2231 39.1691 14.4873 37.6149 15.6609C34.0697 18.3382 30.0739 20.1943 25.892 21.195L28.0955 6.22191C28.2605 5.10062 28.9226 4.45063 29.4871 4.21628C29.677 4.13739 29.863 4.09801 30.044 4.09801C30.3245 4.09801 30.5935 4.19249 30.8481 4.38117C40.4845 11.5221 52.975 13.3597 64.2598 9.29797C64.7502 9.12119 65.2048 9.20022 65.6106 9.53205C66.0837 9.91912 66.5305 10.7322 66.3655 11.8537L64.1427 26.9589C63.484 31.4351 61.8395 35.7203 59.387 39.3513ZM26.6994 65.2464L21.1371 62.4245C17.5372 60.5982 14.3316 57.7411 11.8665 54.1619C9.38127 50.5534 7.69804 46.2832 6.99868 41.813L4.63866 26.7288C4.46351 25.609 4.90281 24.7918 5.37247 24.4003C5.63908 24.1781 5.92798 24.0668 6.23562 24.0668C6.39271 24.0668 6.55474 24.0958 6.72113 24.1541C18.0426 28.1134 30.5157 26.1619 40.0868 18.9341C40.503 18.62 40.9602 18.5603 41.4462 18.7568C42.013 18.9861 42.6809 19.6299 42.856 20.7499L45.2159 35.8342C45.9153 40.3043 45.6167 44.8846 44.3522 49.0796C43.0982 53.2406 40.9182 56.9403 38.0482 59.7787L33.6135 64.1646C31.7789 65.9791 29.0003 66.4139 26.6994 65.2464Z" fill="#02B0AF"/>
<path d="M18.7363 39.593C19.5866 40.3413 20.8825 40.2588 21.6308 39.4085C22.3791 38.5582 22.2965 37.2623 21.4462 36.514C19.6877 34.9662 17.5534 34.2964 15.4369 34.6273C13.3204 34.9584 11.4927 36.2482 10.2908 38.2591C9.70969 39.2314 10.0268 40.4906 10.999 41.0717C11.3287 41.2688 11.6913 41.3626 12.0493 41.3626C12.7472 41.3626 13.4277 41.0061 13.8117 40.3635C14.3774 39.4171 15.1797 38.8192 16.0709 38.6797C16.962 38.5403 17.9089 38.8646 18.7363 39.593Z" fill="#02B0AF"/>
<path d="M30.6261 38.0013C30.9558 38.1983 31.3182 38.292 31.6763 38.292C32.3741 38.292 33.0546 37.9356 33.4387 37.2928C34.0042 36.3465 34.8065 35.7486 35.6978 35.6092C36.5883 35.4696 37.5355 35.794 38.3633 36.5225C39.2136 37.2708 40.5095 37.1882 41.2578 36.3379C42.0061 35.4876 41.9235 34.1917 41.0732 33.4434C39.3145 31.8955 37.1797 31.2252 35.0638 31.5567C32.9472 31.8879 31.1195 33.1776 29.9177 35.1887C29.3366 36.1611 29.6537 37.4202 30.6261 38.0013Z" fill="#02B0AF"/>
<path d="M35.8224 55.0018C37.3912 52.8511 38.0285 50.2182 37.6171 47.588C37.5351 47.0636 37.4086 46.5379 37.2412 46.0253C37.0237 45.3594 36.4813 44.8505 35.8028 44.6757C35.1245 44.5014 34.4035 44.6849 33.8915 45.1633C32.1535 46.787 29.9873 47.8405 27.627 48.2098C25.2665 48.5792 22.8821 48.2376 20.7312 47.2222C20.0976 46.9231 19.3553 46.9682 18.7623 47.3417C18.1696 47.7153 17.8084 48.3655 17.8048 49.0661C17.802 49.6055 17.8422 50.1448 17.9242 50.669C18.3356 53.299 19.7468 55.6115 21.8974 57.1803C23.6217 58.438 25.6554 59.097 27.7495 59.097C28.2675 59.097 28.7895 59.0567 29.311 58.9751C31.9412 58.5637 34.2536 57.1525 35.8224 55.0018ZM24.3148 53.8664C23.6763 53.4006 23.1485 52.8235 22.7512 52.1671C24.5538 52.5164 26.4134 52.5514 28.2609 52.2624C30.1073 51.9735 31.866 51.3728 33.4747 50.4907C32.9362 52.7331 31.0932 54.5443 28.6771 54.9224C27.1291 55.1649 25.5803 54.7896 24.3148 53.8664Z" fill="#02B0AF"/>
</g>
<defs>
<clipPath id="clip0_225_1924">
<rect width="70" height="70" fill="white" transform="translate(0.5)"/>
</clipPath>
</defs>
</svg>
