<svg width="71" height="70" viewBox="0 0 71 70" fill="none" xmlns="http://www.w3.org/2000/svg">
<g clip-path="url(#clip0_225_1931)">
<path d="M69.0623 15.5293C66.5192 15.5293 65.1523 16.4661 64.054 17.2188C63.0871 17.8813 62.3236 18.4046 60.6712 18.4046C59.0187 18.4046 58.2552 17.8813 57.2883 17.2188C56.1901 16.4661 54.8231 15.5293 52.28 15.5293C49.7368 15.5293 48.3701 16.4661 47.2718 17.2188C46.3051 17.8813 45.5415 18.4046 43.8892 18.4046C42.237 18.4046 41.4735 17.8813 40.5068 17.2188C39.4086 16.4661 38.0417 15.5293 35.4987 15.5293C32.9558 15.5293 31.589 16.4661 30.4909 17.2188C29.5243 17.8813 28.7608 18.4046 27.1086 18.4046C25.4564 18.4046 24.6929 17.8813 23.7263 17.2188C22.6281 16.4661 21.2613 15.5293 18.7183 15.5293C16.1753 15.5293 14.8084 16.4661 13.7102 17.2188C12.7435 17.8813 11.9799 18.4046 10.3276 18.4046C8.67558 18.4046 7.91204 17.8813 6.94548 17.2188C5.84726 16.4661 4.48054 15.5293 1.93754 15.5293C1.14365 15.5293 0.5 16.1729 0.5 16.967C0.5 17.761 1.14365 18.4046 1.93768 18.4046C3.58985 18.4046 4.3534 18.928 5.31996 19.5905C6.41818 20.3432 7.7849 21.28 10.3278 21.28C12.8709 21.28 14.2376 20.3432 15.3358 19.5905C16.3025 18.928 17.0661 18.4046 18.7183 18.4046C20.3704 18.4046 21.134 18.928 22.1007 19.5905C23.1989 20.3432 24.5656 21.28 27.1086 21.28C29.6516 21.28 31.0183 20.3432 32.1166 19.5905C33.0831 18.928 33.8467 18.4046 35.4987 18.4046C37.1509 18.4046 37.9144 18.928 38.8811 19.5905C39.9793 20.3432 41.3462 21.28 43.8892 21.28C46.4323 21.28 47.7991 20.3432 48.8974 19.5905C49.8641 18.928 50.6277 18.4046 52.28 18.4046C53.9323 18.4046 54.696 18.928 55.6627 19.5905C56.7609 20.3432 58.1279 21.28 60.671 21.28C63.2141 21.28 64.5811 20.3432 65.6794 19.5905C66.6461 18.928 67.4097 18.4046 69.062 18.4046C69.8561 18.4046 70.4997 17.761 70.4997 16.967C70.5 16.1729 69.8564 15.5293 69.0623 15.5293Z" fill="#02B0AF"/>
<path d="M1.93768 11.6356C3.58985 11.6356 4.3534 12.1589 5.31996 12.8215C6.41818 13.5742 7.7849 14.511 10.3278 14.511C12.8709 14.511 14.2376 13.5742 15.3358 12.8215C16.3025 12.1589 17.0661 11.6356 18.7183 11.6356C20.3704 11.6356 21.134 12.1589 22.1007 12.8215C23.1989 13.5742 24.5656 14.511 27.1086 14.511C29.6516 14.511 31.0183 13.5742 32.1166 12.8215C33.0831 12.1589 33.8467 11.6356 35.4987 11.6356C37.1509 11.6356 37.9144 12.1589 38.8811 12.8215C39.9793 13.5742 41.3462 14.511 43.8892 14.511C46.4323 14.511 47.7991 13.5742 48.8974 12.8215C49.8641 12.1589 50.6277 11.6356 52.28 11.6356C53.9323 11.6356 54.696 12.1589 55.6627 12.8215C56.7609 13.5742 58.1279 14.511 60.671 14.511C63.2141 14.511 64.5811 13.5742 65.6794 12.8215C66.6461 12.1589 67.4097 11.6356 69.062 11.6356C69.8561 11.6356 70.4997 10.992 70.4997 10.1979C70.4997 9.4039 69.8561 8.76025 69.062 8.76025C66.5189 8.76025 65.1521 9.69701 64.0537 10.4498C63.0869 11.1123 62.3233 11.6356 60.6709 11.6356C59.0184 11.6356 58.2549 11.1123 57.288 10.4498C56.1898 9.69701 54.8228 8.76025 52.2797 8.76025C49.7366 8.76025 48.3698 9.69701 47.2715 10.4498C46.3048 11.1123 45.5412 11.6356 43.8889 11.6356C42.2367 11.6356 41.4732 11.1123 40.5065 10.4498C39.4083 9.69701 38.0414 8.76025 35.4984 8.76025C32.9556 8.76025 31.5887 9.69701 30.4906 10.4498C29.5241 11.1123 28.7605 11.6356 27.1083 11.6356C25.4562 11.6356 24.6926 11.1123 23.7261 10.4498C22.6278 9.69701 21.261 8.76025 18.718 8.76025C16.175 8.76025 14.8081 9.69701 13.7099 10.4498C12.7432 11.1123 11.9797 11.6356 10.3274 11.6356C8.67531 11.6356 7.91177 11.1123 6.9452 10.4498C5.84699 9.69701 4.48027 8.76025 1.93727 8.76025C1.14365 8.76012 0.5 9.4039 0.5 10.1979C0.5 10.992 1.14365 11.6356 1.93768 11.6356Z" fill="#02B0AF"/>
<path d="M66.9002 40.7658L54.5885 41.2598L50.2901 40.1738C48.1633 40.0123 46.2488 38.9136 45.0404 37.2759C43.742 35.5162 43.3688 33.3551 43.8293 31.3755L31.3927 26.7109C31.1335 26.6166 30.8612 26.5634 30.5857 26.5534L19.1026 26.1359C17.6482 26.082 16.4227 27.2207 16.3696 28.6771C16.3166 30.1335 17.4543 31.3571 18.9108 31.41L29.9779 31.8123L36.3393 34.1287L32.888 33.6781L23.2195 36.2268C21.6374 36.6439 20.2689 37.6369 19.3824 39.0119C17.4848 41.9549 14.9699 45.8555 14.0147 47.3387L2.07899 55.6161C0.678092 56.5878 0.33002 58.5109 1.3015 59.9119C2.27764 61.3194 4.20242 61.6567 5.5973 60.6894L18.0371 52.0626C18.3699 51.8318 18.654 51.5379 18.8732 51.1973L23.4991 44.0145L23.4354 44.1776L23.4356 44.1775L20.0424 52.8886L25.7738 49.9193L25.774 49.9196C46.3318 44.4537 45.3834 44.779 45.9437 44.5191L53.6665 46.4702C53.878 46.5236 54.0949 46.5506 54.3128 46.5506C54.3481 46.5506 54.3834 46.5499 54.4187 46.5485L67.1121 46.0393C68.5683 45.9809 69.7014 44.7529 69.643 43.2968C69.5842 41.8405 68.3598 40.7073 66.9002 40.7658Z" fill="#02B0AF"/>
<path d="M3.75982 52.3457L10.8187 47.4504L5.45889 46.4388C3.78347 46.1221 2.16916 47.2242 1.85294 48.8995C1.57309 50.3818 2.40403 51.816 3.75982 52.3457Z" fill="#02B0AF"/>
<path d="M54.0686 37.4041C56.4965 35.6128 57.0124 32.1922 55.2211 29.7643C53.4244 27.3293 50.0026 26.8254 47.5813 28.6118C45.1534 30.4032 44.6374 33.8236 46.4288 36.2516C48.2289 38.6911 51.6516 39.1875 54.0686 37.4041Z" fill="#02B0AF"/>
</g>
<defs>
<clipPath id="clip0_225_1931">
<rect width="70" height="70" fill="white" transform="translate(0.5)"/>
</clipPath>
</defs>
</svg>
