<svg width="71" height="70" viewBox="0 0 71 70" fill="none" xmlns="http://www.w3.org/2000/svg">
<path d="M61.3124 51.3339L55.5833 49.1268C55.2392 49.0014 54.9312 48.7934 54.6863 48.521C54.4414 48.2487 54.2672 47.9203 54.179 47.5649L49.9046 29.5705L65.7027 7.84863C65.8718 7.61637 65.9934 7.35309 66.0607 7.07382C66.128 6.79455 66.1397 6.50476 66.095 6.22099C66.0503 5.93722 65.9502 5.66503 65.8003 5.41996C65.6504 5.17489 65.4537 4.96175 65.2215 4.79269C64.9892 4.62363 64.7259 4.50198 64.4467 4.43467C64.1674 4.36736 63.8776 4.35572 63.5938 4.40041C63.0207 4.49066 62.507 4.80488 62.1655 5.27394L45.3699 28.3718C40.9818 27.5689 34.8568 23.5593 30.4949 20.0199L38.7943 8.74988H42.0624C42.6426 8.74988 43.199 8.51941 43.6092 8.10917C44.0194 7.69894 44.2499 7.14254 44.2499 6.56238C44.2499 5.98222 44.0194 5.42582 43.6092 5.01558C43.199 4.60535 42.6426 4.37488 42.0624 4.37488H17.9999C17.4197 4.37488 16.8633 4.60535 16.4531 5.01558C16.0429 5.42582 15.8124 5.98222 15.8124 6.56238C15.8124 7.14254 16.0429 7.69894 16.4531 8.10917C16.8633 8.51941 17.4197 8.74988 17.9999 8.74988H33.3627L26.903 17.5327C26.5977 17.505 26.29 17.543 26.0006 17.6442C25.7113 17.7453 25.4469 17.9072 25.2252 18.1189L12.6318 30.3296C11.9992 30.9319 11.4956 31.6564 11.1514 32.4592C10.8073 33.2621 10.6299 34.1264 10.6299 34.9999C10.6299 35.8733 10.8073 36.7377 11.1514 37.5405C11.4956 38.3433 11.9992 39.0679 12.6318 39.6702L36.3049 62.4508C38.4403 64.5008 41.2898 65.6392 44.2499 65.6249H58.5146C60.5049 65.6494 62.4237 64.8837 63.8504 63.4956C65.277 62.1076 66.0949 60.2104 66.1249 58.2202C66.1197 56.7188 65.656 55.2548 64.796 54.0242C63.9359 52.7935 62.7205 51.8549 61.3124 51.3339ZM58.5146 61.2499H44.2499C42.4227 61.2527 40.6641 60.5543 39.3368 59.2986L15.6658 36.5158C15.4566 36.3217 15.2897 36.0865 15.1755 35.8249C15.0614 35.5633 15.0024 35.2809 15.0024 34.9955C15.0024 34.7101 15.0614 34.4277 15.1755 34.1661C15.2897 33.9045 15.4566 33.6693 15.6658 33.4752L26.8221 22.6558C30.4599 25.7183 39.2908 32.528 46.2908 32.8846L46.8837 35.4571L41.358 37.2989C40.8069 37.4826 40.3512 37.8776 40.0914 38.3972C39.8315 38.9167 39.7886 39.5183 39.9722 40.0694C40.1559 40.6206 40.5509 41.0762 41.0705 41.3361C41.59 41.596 42.1916 41.6388 42.7427 41.4552L47.8746 39.7446L48.4565 42.2646L45.6958 43.2424C45.2111 43.4167 44.8034 43.7565 44.5447 44.2019C44.2859 44.6473 44.1926 45.1697 44.2812 45.6772C44.3698 46.1846 44.6347 46.6445 45.0291 46.9758C45.4236 47.3071 45.9223 47.4886 46.4374 47.4883C46.6864 47.4884 46.9336 47.4455 47.168 47.3614L49.4583 46.5499L49.9199 48.5493C50.1686 49.6022 50.6721 50.5779 51.3861 51.3907C52.1001 52.2035 53.0028 52.8285 54.0149 53.2108L59.744 55.4158C60.3238 55.6239 60.8264 56.0038 61.1848 56.5048C61.5432 57.0059 61.7403 57.6042 61.7499 58.2202C61.7208 59.0503 61.364 59.8352 60.7577 60.403C60.1514 60.9707 59.3449 61.2753 58.5146 61.2499Z" fill="#02B0AF"/>
<path d="M56.4537 55.65L45.9296 54.8122C45.4402 54.7738 44.9779 54.572 44.6171 54.2391L22.0356 33.3922C21.825 33.1942 21.5773 33.0399 21.3068 32.9382C21.0362 32.8365 20.7482 32.7894 20.4594 32.7997C20.1705 32.81 19.8866 32.8774 19.6239 32.9981C19.3613 33.1187 19.1252 33.2902 18.9292 33.5026C18.7333 33.7151 18.5813 33.9643 18.4822 34.2358C18.3831 34.5073 18.3388 34.7957 18.3518 35.0844C18.3649 35.3732 18.435 35.6564 18.5581 35.9179C18.6813 36.1794 18.855 36.4139 19.0693 36.6078L41.6553 57.4547C42.7382 58.4529 44.1246 59.0591 45.5928 59.1762L56.1168 60.014H56.2918C56.849 60.0011 57.3803 59.776 57.7772 59.3847C58.174 58.9933 58.4065 58.4652 58.4271 57.9082C58.4478 57.3512 58.2551 56.8074 57.8883 56.3877C57.5216 55.968 57.0084 55.7041 56.4537 55.65Z" fill="#02B0AF"/>
<path d="M7.0625 8.75H11.4375C12.0177 8.75 12.5741 8.51953 12.9843 8.1093C13.3945 7.69906 13.625 7.14266 13.625 6.5625C13.625 5.98234 13.3945 5.42594 12.9843 5.0157C12.5741 4.60547 12.0177 4.375 11.4375 4.375H7.0625C6.48234 4.375 5.92594 4.60547 5.5157 5.0157C5.10547 5.42594 4.875 5.98234 4.875 6.5625C4.875 7.14266 5.10547 7.69906 5.5157 8.1093C5.92594 8.51953 6.48234 8.75 7.0625 8.75Z" fill="#02B0AF"/>
<path d="M9.25 15.3125C9.25 15.8927 9.48047 16.4491 9.8907 16.8593C10.3009 17.2695 10.8573 17.5 11.4375 17.5H20.1875C20.7677 17.5 21.3241 17.2695 21.7343 16.8593C22.1445 16.4491 22.375 15.8927 22.375 15.3125C22.375 14.7323 22.1445 14.1759 21.7343 13.7657C21.3241 13.3555 20.7677 13.125 20.1875 13.125H11.4375C10.8573 13.125 10.3009 13.3555 9.8907 13.7657C9.48047 14.1759 9.25 14.7323 9.25 15.3125Z" fill="#02B0AF"/>
<path d="M7.0625 26.25H11.4375C12.0177 26.25 12.5741 26.0195 12.9843 25.6093C13.3945 25.1991 13.625 24.6427 13.625 24.0625C13.625 23.4823 13.3945 22.9259 12.9843 22.5157C12.5741 22.1055 12.0177 21.875 11.4375 21.875H7.0625C6.48234 21.875 5.92594 22.1055 5.5157 22.5157C5.10547 22.9259 4.875 23.4823 4.875 24.0625C4.875 24.6427 5.10547 25.1991 5.5157 25.6093C5.92594 26.0195 6.48234 26.25 7.0625 26.25Z" fill="#02B0AF"/>
<path d="M14.2655 53.1409L9.89047 57.5159C9.68155 57.7177 9.5149 57.9591 9.40025 58.226C9.28561 58.4929 9.22526 58.7799 9.22274 59.0704C9.22021 59.3608 9.27556 59.6489 9.38555 59.9177C9.49554 60.1865 9.65797 60.4308 9.86336 60.6362C10.0688 60.8415 10.313 61.004 10.5818 61.114C10.8507 61.224 11.1387 61.2793 11.4292 61.2768C11.7196 61.2743 12.0067 61.2139 12.2735 61.0993C12.5404 60.9846 12.7818 60.818 12.9836 60.609L17.3586 56.234C17.7571 55.8215 17.9776 55.2689 17.9726 54.6953C17.9676 54.1218 17.7375 53.5731 17.332 53.1676C16.9264 52.762 16.3777 52.5319 15.8042 52.5269C15.2306 52.522 14.678 52.7424 14.2655 53.1409Z" fill="#02B0AF"/>
<path d="M13.625 48.125C13.625 47.5448 13.3945 46.9884 12.9843 46.5782C12.5741 46.168 12.0177 45.9375 11.4375 45.9375H7.0625C6.48234 45.9375 5.92594 46.168 5.5157 46.5782C5.10547 46.9884 4.875 47.5448 4.875 48.125C4.875 48.7052 5.10547 49.2616 5.5157 49.6718C5.92594 50.082 6.48234 50.3125 7.0625 50.3125H11.4375C12.0177 50.3125 12.5741 50.082 12.9843 49.6718C13.3945 49.2616 13.625 48.7052 13.625 48.125Z" fill="#02B0AF"/>
<path d="M22.375 56.875C21.7948 56.875 21.2384 57.1055 20.8282 57.5157C20.418 57.9259 20.1875 58.4823 20.1875 59.0625V63.4375C20.1875 64.0177 20.418 64.5741 20.8282 64.9843C21.2384 65.3945 21.7948 65.625 22.375 65.625C22.9552 65.625 23.5116 65.3945 23.9218 64.9843C24.332 64.5741 24.5625 64.0177 24.5625 63.4375V59.0625C24.5625 58.4823 24.332 57.9259 23.9218 57.5157C23.5116 57.1055 22.9552 56.875 22.375 56.875Z" fill="#02B0AF"/>
</svg>
