<svg width="71" height="70" viewBox="0 0 71 70" fill="none" xmlns="http://www.w3.org/2000/svg">
<path d="M66.3984 22.5586V20.5078H68.4492C69.5818 20.5078 70.5 19.5896 70.5 18.457V14.3555C70.5 13.4985 69.9673 12.7319 69.1641 12.4333L36.0782 0.128654C35.6153 -0.0434749 35.1057 -0.0429281 34.6433 0.130568L1.83082 12.4353C1.03033 12.7355 0.5 13.5006 0.5 14.3555V18.457C0.5 19.5896 1.4182 20.5078 2.55078 20.5078H4.60156V22.5586C4.60156 25.2321 6.31615 27.5116 8.70312 28.3582V49.8449C6.31615 50.6915 4.60156 52.971 4.60156 55.6445V58.048C2.21459 58.8947 0.5 61.1741 0.5 63.8477V67.9492C0.5 69.0818 1.4182 70 2.55078 70H68.4492C69.5818 70 70.5 69.0818 70.5 67.9492V63.8477C70.5 61.1741 68.7854 58.8946 66.3984 58.048V55.6445C66.3984 52.971 64.6838 50.6915 62.2969 49.8449V28.3582C64.6838 27.5116 66.3984 25.2321 66.3984 22.5586ZM6.65234 16.4063H4.60156V15.7767L35.3661 4.23992L66.3984 15.7808V16.4063H64.3477H6.65234ZM8.70312 55.6445C8.70312 54.5137 9.62311 53.5938 10.7539 53.5938H60.2461C61.3769 53.5938 62.2969 54.5137 62.2969 55.6445V57.6953H8.70312V55.6445ZM12.8047 49.4922V28.7109H16.9062V49.4922H12.8047ZM21.0078 49.4922V28.7109H29.2109V49.4922H21.0078ZM33.3125 49.4922V28.7109H37.4141V49.4922H33.3125ZM41.5156 49.4922V28.7109H49.9922V49.4922H41.5156ZM54.0938 49.4922V28.7109H58.1953V49.4922H54.0938ZM64.3477 61.7969C65.4785 61.7969 66.3984 62.7169 66.3984 63.8477V65.8984H4.60156V63.8477C4.60156 62.7169 5.52154 61.7969 6.65234 61.7969H64.3477ZM60.2461 24.6094H10.7539C9.62311 24.6094 8.70312 23.6894 8.70312 22.5586V20.5078H62.2969V22.5586C62.2969 23.6894 61.3769 24.6094 60.2461 24.6094Z" fill="#02B0AF"/>
</svg>
