<svg width="71" height="70" viewBox="0 0 71 70" fill="none" xmlns="http://www.w3.org/2000/svg">
<mask id="mask0_225_1970" style="mask-type:luminance" maskUnits="userSpaceOnUse" x="0" y="0" width="71" height="70">
<path d="M68.5 68V2.00001H2.5V68H68.5Z" fill="white" stroke="white" stroke-width="4"/>
</mask>
<g mask="url(#mask0_225_1970)">
<path d="M36.7305 21.4648H6.65234C4.38719 21.4648 2.55078 23.3013 2.55078 25.5664V57.0117C2.55078 58.5219 3.77496 59.7461 5.28516 59.7461H38.0977C39.6078 59.7461 40.832 58.5219 40.832 57.0117V25.5664C40.832 23.3013 38.9956 21.4648 36.7305 21.4648Z" stroke="#02B0AF" stroke-width="4" stroke-miterlimit="10" stroke-linecap="round" stroke-linejoin="round"/>
<path d="M40.832 29.668H2.55078V43.3398H40.832V29.668Z" stroke="#02B0AF" stroke-width="4" stroke-miterlimit="10" stroke-linecap="round" stroke-linejoin="round"/>
<path d="M13.4883 59.7461H5.28516V65.2148C5.28516 66.725 6.50934 67.9492 8.01953 67.9492H10.7539C12.2641 67.9492 13.4883 66.725 13.4883 65.2148V59.7461Z" stroke="#02B0AF" stroke-width="4" stroke-miterlimit="10" stroke-linecap="round" stroke-linejoin="round"/>
<path d="M38.0977 59.7461H29.8945V65.2148C29.8945 66.725 31.1187 67.9492 32.6289 67.9492H35.3633C36.8735 67.9492 38.0977 66.725 38.0977 65.2148V59.7461Z" stroke="#02B0AF" stroke-width="4" stroke-miterlimit="10" stroke-linecap="round" stroke-linejoin="round"/>
<path d="M18.957 51.543H24.4258" stroke="#02B0AF" stroke-width="4" stroke-miterlimit="10" stroke-linecap="round" stroke-linejoin="round"/>
<path d="M32.6289 51.5938C32.6396 51.5938 32.6447 51.592 32.648 51.5906C32.6527 51.5886 32.6587 51.5849 32.6648 51.5789C32.6709 51.5728 32.6746 51.5667 32.6765 51.5621C32.6779 51.5588 32.6797 51.5536 32.6797 51.543C32.6797 51.5323 32.6779 51.5272 32.6765 51.5239C32.6746 51.5192 32.6709 51.5131 32.6648 51.5071C32.6587 51.501 32.6527 51.4973 32.648 51.4954C32.6447 51.494 32.6396 51.4922 32.6289 51.4922C32.6182 51.4922 32.6131 51.494 32.6098 51.4954C32.6052 51.4973 32.5991 51.501 32.593 51.5071C32.587 51.5131 32.5832 51.5192 32.5813 51.5239C32.5799 51.5272 32.5781 51.5323 32.5781 51.543C32.5781 51.5536 32.5799 51.5588 32.5813 51.5621C32.5832 51.5667 32.587 51.5728 32.593 51.5789C32.5991 51.5849 32.6052 51.5886 32.6098 51.5906C32.6131 51.592 32.6182 51.5938 32.6289 51.5938Z" fill="#02B0AF" stroke="#02B0AF" stroke-width="4"/>
<path d="M10.7031 51.543C10.7031 51.5536 10.7049 51.5588 10.7063 51.5621C10.7082 51.5667 10.712 51.5728 10.718 51.5789C10.7241 51.5849 10.7302 51.5886 10.7348 51.5906C10.7381 51.592 10.7432 51.5938 10.7539 51.5938C10.7646 51.5938 10.7697 51.592 10.773 51.5906C10.7777 51.5886 10.7837 51.5849 10.7898 51.5789C10.7959 51.5728 10.7996 51.5667 10.8015 51.5621C10.8029 51.5588 10.8047 51.5536 10.8047 51.543C10.8047 51.5323 10.8029 51.5272 10.8015 51.5239C10.7996 51.5192 10.7959 51.5131 10.7898 51.5071C10.7837 51.501 10.7777 51.4973 10.773 51.4954C10.7697 51.494 10.7646 51.4922 10.7539 51.4922C10.7432 51.4922 10.7381 51.494 10.7348 51.4954C10.7302 51.4973 10.7241 51.501 10.718 51.5071C10.712 51.5131 10.7082 51.5192 10.7063 51.5239C10.7049 51.5272 10.7031 51.5323 10.7031 51.543Z" fill="#02B0AF" stroke="#02B0AF" stroke-width="4"/>
<path d="M62.9805 2.05078H8.01953C4.99928 2.05078 2.55078 4.49914 2.55078 7.51953V10.2539H68.4492V7.51953C68.4492 4.49914 66.0007 2.05078 62.9805 2.05078Z" stroke="#02B0AF" stroke-width="4" stroke-miterlimit="10" stroke-linecap="round" stroke-linejoin="round"/>
<path d="M68.4492 59.7461H47.9414V67.9492H68.4492V59.7461Z" stroke="#02B0AF" stroke-width="4" stroke-miterlimit="10" stroke-linecap="round" stroke-linejoin="round"/>
<path d="M68.4492 59.7461V10.2539" stroke="#02B0AF" stroke-width="4" stroke-miterlimit="10" stroke-linecap="round" stroke-linejoin="round"/>
<path d="M60.2461 59.7461V41.9727" stroke="#02B0AF" stroke-width="4" stroke-miterlimit="10" stroke-linecap="round" stroke-linejoin="round"/>
<path d="M50.6758 59.7461V51.543" stroke="#02B0AF" stroke-width="4" stroke-miterlimit="10" stroke-linecap="round" stroke-linejoin="round"/>
<path d="M50.6758 51.543H60.2461" stroke="#02B0AF" stroke-width="4" stroke-miterlimit="10" stroke-linecap="round" stroke-linejoin="round"/>
</g>
</svg>
