<svg width="71" height="68" viewBox="0 0 71 68" fill="none" xmlns="http://www.w3.org/2000/svg">
<path d="M69.3245 57.7263C68.084 56.8654 66.3802 57.1729 65.5191 58.4135C62.054 63.405 51.9683 63.4079 48.5014 58.4135C47.9904 57.6772 47.1514 57.2382 46.2552 57.2382C45.359 57.2382 44.5198 57.6772 44.0089 58.4133C40.5438 63.405 30.4581 63.4079 26.9911 58.4133C26.48 57.6772 25.641 57.2382 24.7448 57.2382C23.8486 57.2382 23.0094 57.6774 22.4985 58.4135C19.0334 63.4053 8.94785 63.4079 5.48082 58.4135C4.61963 57.1727 2.91572 56.8654 1.67541 57.7263C0.434831 58.5875 0.127216 60.291 0.988402 61.5316C6.00841 68.7634 18.1445 69.5463 24.7448 63.9858C30.5492 68.8755 40.5188 68.8182 46.255 63.9858C52.8536 69.5449 64.9958 68.7569 70.0113 61.5316C70.8725 60.291 70.5649 58.5875 69.3245 57.7263Z" fill="#02B0AF"/>
<path d="M13.8984 42.2004C15.4086 42.2004 16.6328 40.9762 16.6328 39.4662V35.3649H41.2419V39.4662C41.2419 40.9762 42.466 42.2004 43.9762 42.2004C45.4864 42.2004 46.7106 40.9762 46.7106 39.4662V9.66371C46.7106 7.55305 48.4278 5.83588 50.5387 5.83588C52.6495 5.83588 54.3668 7.55305 54.3668 9.66371C54.3668 11.1738 55.591 12.3979 57.1012 12.3979C58.6113 12.3979 59.8355 11.1738 59.8355 9.66371C59.8355 4.53774 55.6649 0.367432 50.5388 0.367432C45.4127 0.367432 41.242 4.53774 41.242 9.66371V17.5928H16.6328V9.66371C16.6328 7.55305 18.35 5.83588 20.4609 5.83588C22.5718 5.83588 24.289 7.55305 24.289 9.66371C24.289 11.1738 25.5132 12.3979 27.0233 12.3979C28.5335 12.3979 29.7577 11.1738 29.7577 9.66371C29.7576 4.53774 25.5871 0.367432 20.4609 0.367432C15.3346 0.367432 11.1641 4.53774 11.1641 9.66371V39.4663C11.1641 40.9762 12.3882 42.2004 13.8984 42.2004ZM16.6328 23.0611H41.2419V29.8966H16.6328V23.0611Z" fill="#02B0AF"/>
<path d="M24.7452 51.6821C27.498 54.0012 31.316 55.3245 35.5003 55.3245C39.6845 55.3245 43.5024 54.0012 46.2553 51.6821C52.8539 57.2412 64.9961 56.4531 70.0116 49.2279C70.8727 47.9873 70.5651 46.2837 69.3245 45.4226C68.084 44.5617 66.3802 44.8692 65.5191 46.1097C62.054 51.1013 51.9683 51.1042 48.5014 46.1097C47.9904 45.3735 47.1514 44.9345 46.2552 44.9345C45.359 44.9345 44.5198 45.3735 44.0089 46.1096C40.5438 51.1013 30.4581 51.1042 26.9911 46.1096C26.48 45.3735 25.641 44.9345 24.7448 44.9345C23.8486 44.9345 23.0094 45.3737 22.4985 46.1097C19.0334 51.1016 8.94785 51.1042 5.48082 46.1097C4.61963 44.869 2.91572 44.5617 1.67541 45.4226C0.434831 46.2838 0.127216 47.9873 0.988402 49.2279C6.00841 56.4597 18.1445 57.2426 24.7452 51.6821Z" fill="#02B0AF"/>
</svg>
