<svg width="50" height="50" viewBox="0 0 50 50" fill="none" xmlns="http://www.w3.org/2000/svg">
<path d="M15.625 45.3125H6.26563C5.84953 45.3133 5.45 45.1495 5.15431 44.8567C4.85862 44.564 4.6908 44.1661 4.6875 43.75V6.25C4.6875 5.8356 4.85212 5.43817 5.14515 5.14515C5.43817 4.85212 5.8356 4.6875 6.25 4.6875H15.625C16.0394 4.6875 16.4368 4.85212 16.7299 5.14515C17.0229 5.43817 17.1875 5.8356 17.1875 6.25V21.8438C17.1875 22.2582 17.0229 22.6556 16.7299 22.9486C16.4368 23.2416 16.0394 23.4062 15.625 23.4062C15.2106 23.4062 14.8132 23.2416 14.5201 22.9486C14.2271 22.6556 14.0625 22.2582 14.0625 21.8438V7.8125H7.8125V42.1875H14.0625V41.6875C14.0625 41.2731 14.2271 40.8757 14.5201 40.5826C14.8132 40.2896 15.2106 40.125 15.625 40.125C16.0394 40.125 16.4368 40.2896 16.7299 40.5826C17.0229 40.8757 17.1875 41.2731 17.1875 41.6875V43.75C17.1875 44.1644 17.0229 44.5618 16.7299 44.8549C16.4368 45.1479 16.0394 45.3125 15.625 45.3125Z" fill="#02B0AF"/>
<path d="M31.25 34.375C31.0272 34.3755 30.807 34.3275 30.6047 34.2344C30.3314 34.1104 30.0996 33.9104 29.937 33.6583C29.7743 33.4062 29.6877 33.1125 29.6875 32.8125V10.9375C29.6875 10.6374 29.7739 10.3436 29.9364 10.0914C30.0989 9.83908 30.3307 9.63894 30.6039 9.51485C30.8771 9.39076 31.1803 9.34797 31.4772 9.39161C31.7741 9.43524 32.0522 9.56345 32.2781 9.76091L44.7781 20.6984C44.946 20.8451 45.0805 21.0259 45.1726 21.2289C45.2648 21.4318 45.3125 21.6521 45.3125 21.875C45.3125 22.0979 45.2648 22.3182 45.1726 22.5211C45.0805 22.724 44.946 22.9049 44.7781 23.0515L32.2781 33.989C31.9934 34.2378 31.6281 34.375 31.25 34.375ZM32.8125 14.375V29.375L41.3766 21.875L32.8125 14.375Z" fill="#02B0AF"/>
<path d="M15.6126 45.3125H6.26264C5.84824 45.3125 5.45082 45.1479 5.15779 44.8549C4.86476 44.5618 4.70014 44.1644 4.70014 43.75V43.3781C4.50952 35.2359 6.86889 28.4703 11.7095 23.2719C16.4267 18.1969 23.0033 15.625 31.2501 15.625C31.6645 15.625 32.062 15.7896 32.355 16.0826C32.648 16.3757 32.8126 16.7731 32.8126 17.1875V26.5625C32.8126 26.9769 32.648 27.3743 32.355 27.6674C32.062 27.9604 31.6645 28.125 31.2501 28.125C26.6142 28.125 23.1158 29.3578 20.8517 31.7891C17.0908 35.8266 17.1517 41.2609 17.172 43.3062V43.7625C17.1687 44.1742 17.0031 44.5679 16.7111 44.8582C16.4191 45.1484 16.0243 45.3117 15.6126 45.3125ZM7.81264 42.1875H14.0486C13.9656 37.5981 15.5734 33.1385 18.5658 29.6578C21.5188 26.7121 25.5166 25.053 29.6876 25.0422V18.7844C26.762 18.7838 23.8659 19.369 21.17 20.5055C18.4741 21.6419 16.033 23.3067 13.9908 25.4016C9.85101 29.9952 7.63863 36.0062 7.81264 42.1875Z" fill="#02B0AF"/>
</svg>
