<svg width="50" height="50" viewBox="0 0 50 50" fill="none" xmlns="http://www.w3.org/2000/svg">
<g clip-path="url(#clip0_225_2109)">
<path d="M49.0953 33.7458C48.5956 33.7458 48.1906 34.1509 48.1906 34.6505V48.1906H39.8361V12.9724C39.8361 12.4728 39.4312 12.0677 38.9314 12.0677H11.0686C10.5688 12.0677 10.1639 12.4728 10.1639 12.9724V48.1907H1.80938V9.45144C1.80938 8.95183 1.40439 8.54675 0.904688 8.54675C0.40498 8.54675 0 8.95183 0 9.45144V49.0952C0 49.5948 0.40498 49.9999 0.904688 49.9999H49.0953C49.595 49.9999 50 49.5948 50 49.0952V34.6504C50 34.1509 49.5949 33.7458 49.0953 33.7458ZM24.0953 48.1907H11.9732V13.8771H24.0953V48.1907ZM38.0268 48.1907H25.9047V13.8771H38.0268V48.1907Z" fill="#02B0AF"/>
<path d="M49.0953 0.00012207H0.904688C0.40498 0.00012207 0 0.405103 0 0.90481V6.43596C0 6.93557 0.40498 7.34065 0.904688 7.34065C1.40439 7.34065 1.80938 6.93557 1.80938 6.43596V1.8095H48.1906V31.635C48.1906 32.1346 48.5956 32.5397 49.0953 32.5397C49.595 32.5397 50 32.1346 50 31.635V0.90481C50 0.405103 49.5949 0.00012207 49.0953 0.00012207Z" fill="#02B0AF"/>
<path d="M41.6658 3.52881H38.8893C38.3896 3.52881 37.9846 3.93389 37.9846 4.4335C37.9846 4.93311 38.3896 5.33818 38.8893 5.33818H40.7611V8.81113H9.23809V5.33818H35.8736C36.3733 5.33818 36.7783 4.93311 36.7783 4.4335C36.7783 3.93389 36.3733 3.52881 35.8736 3.52881H8.3334C7.83369 3.52881 7.42871 3.93389 7.42871 4.4335V9.71582C7.42871 10.2154 7.83369 10.6205 8.3334 10.6205H41.6658C42.1655 10.6205 42.5705 10.2154 42.5705 9.71582V4.4335C42.5705 3.93389 42.1656 3.52881 41.6658 3.52881Z" fill="#02B0AF"/>
<path d="M35.2416 6.17041C34.7424 6.17041 34.3369 6.57451 34.3369 7.0751C34.3369 7.57451 34.7422 7.97861 35.2416 7.97861C35.7411 7.97861 36.1463 7.57451 36.1463 7.0751C36.1463 6.57451 35.7411 6.17041 35.2416 6.17041Z" fill="#02B0AF"/>
<path d="M38.6547 6.17041C38.1553 6.17041 37.75 6.57451 37.75 7.0751C37.75 7.57451 38.1553 7.97861 38.6547 7.97861C39.1542 7.97861 39.5594 7.57451 39.5594 7.0751C39.5594 6.57451 39.1542 6.17041 38.6547 6.17041Z" fill="#02B0AF"/>
<path d="M31.8275 6.17041C31.3283 6.17041 30.9229 6.57451 30.9229 7.0751C30.9229 7.57451 31.3281 7.97861 31.8275 7.97861C32.3271 7.97861 32.7322 7.57451 32.7322 7.0751C32.7322 6.57451 32.3271 6.17041 31.8275 6.17041Z" fill="#02B0AF"/>
<path d="M28.4145 6.17041C27.9138 6.17041 27.5098 6.57451 27.5098 7.0751C27.5098 7.57451 27.9139 7.97861 28.4145 7.97861C28.9139 7.97861 29.3191 7.57451 29.3191 7.0751C29.3191 6.57451 28.9139 6.17041 28.4145 6.17041Z" fill="#02B0AF"/>
<path d="M18.1713 6.17041C17.6721 6.17041 17.2666 6.57451 17.2666 7.0751C17.2666 7.57451 17.6719 7.97861 18.1713 7.97861C18.6719 7.97861 19.076 7.57451 19.076 7.0751C19.076 6.57451 18.6719 6.17041 18.1713 6.17041Z" fill="#02B0AF"/>
<path d="M14.7582 6.17041C14.2588 6.17041 13.8535 6.57451 13.8535 7.0751C13.8535 7.57451 14.2588 7.97861 14.7582 7.97861C15.2576 7.97861 15.6629 7.57451 15.6629 7.0751C15.6629 6.57451 15.2576 6.17041 14.7582 6.17041Z" fill="#02B0AF"/>
<path d="M21.5867 6.17041C21.0861 6.17041 20.6807 6.57451 20.6807 7.0751C20.6807 7.57451 21.0859 7.97861 21.5867 7.97861C22.0861 7.97861 22.49 7.57451 22.49 7.0751C22.49 6.57451 22.0859 6.17041 21.5867 6.17041Z" fill="#02B0AF"/>
<path d="M25.0004 6.17041C24.4997 6.17041 24.0957 6.57451 24.0957 7.0751C24.0957 7.57451 24.4998 7.97861 25.0004 7.97861C25.4998 7.97861 25.9051 7.57451 25.9051 7.0751C25.9051 6.57451 25.4997 6.17041 25.0004 6.17041Z" fill="#02B0AF"/>
<path d="M8.97116 25.6723L6.98825 21.2769C6.84167 20.9528 6.51901 20.7444 6.16325 20.7444C5.80749 20.7444 5.48483 20.9528 5.33854 21.2771L3.35563 25.6725C3.15016 26.128 3.3529 26.6638 3.80837 26.8692C4.26384 27.0748 4.79968 26.8721 5.00505 26.4167L6.16345 23.8491L7.32184 26.4167C7.47282 26.7512 7.80222 26.9495 8.14704 26.9495C8.27136 26.9495 8.39782 26.9237 8.51852 26.8691C8.97399 26.6636 9.17663 26.1278 8.97116 25.6723Z" fill="#02B0AF"/>
<path d="M8.51825 28.3403C8.06317 28.135 7.52704 28.3376 7.32157 28.7929L6.16317 31.3604L5.00477 28.7929C4.79921 28.3375 4.26337 28.1347 3.8081 28.3403C3.35282 28.5458 3.15019 29.0815 3.35565 29.537L5.33856 33.9324C5.48485 34.2566 5.80751 34.4651 6.16327 34.4651C6.51903 34.4651 6.84169 34.2567 6.98798 33.9324L8.97089 29.537C9.17636 29.0815 8.97372 28.5457 8.51825 28.3403Z" fill="#02B0AF"/>
<path d="M11.3441 6.17041C10.8447 6.17041 10.4395 6.57451 10.4395 7.0751C10.4395 7.57451 10.8447 7.97861 11.3441 7.97861C11.8437 7.97861 12.2488 7.57451 12.2488 7.0751C12.2488 6.57451 11.8437 6.17041 11.3441 6.17041Z" fill="#02B0AF"/>
</g>
<defs>
<clipPath id="clip0_225_2109">
<rect width="50" height="50" fill="white"/>
</clipPath>
</defs>
</svg>
