<svg width="50" height="50" viewBox="0 0 50 50" fill="none" xmlns="http://www.w3.org/2000/svg">
<g clip-path="url(#clip0_225_2154)">
<path d="M49.1482 4.38446C49.6186 4.38446 49.9998 4.00312 49.9998 3.53281V0.851659C49.9998 0.381347 49.6187 0 49.1482 0H10.6085C10.1382 0 9.75684 0.381347 9.75684 0.851659V39.3911C9.75684 39.8615 10.1382 40.2428 10.6085 40.2428H49.148C49.6184 40.2428 49.9996 39.8615 49.9996 39.3911V6.37157C49.9996 5.90126 49.6185 5.51991 49.148 5.51991C48.6776 5.51991 48.2963 5.90126 48.2963 6.37157V20.9629H44.9141C44.4437 20.9629 44.0624 21.3443 44.0624 21.8146C44.0624 22.2849 44.4436 22.6663 44.9141 22.6663H48.2963V38.5396H23.9639V34.4188C23.9639 33.9485 23.5826 33.5671 23.1123 33.5671C22.642 33.5671 22.2606 33.9485 22.2606 34.4188V38.5396H11.4602V1.70332H22.2607V28.2871C22.2607 28.7574 22.6421 29.1387 23.1124 29.1387C23.5827 29.1387 23.964 28.7574 23.964 28.2871V22.6663H39.1231C39.5935 22.6663 39.9747 22.2849 39.9747 21.8146C39.9747 21.3443 39.5936 20.9629 39.1231 20.9629H23.9639V1.70332H48.2965V3.53281C48.2965 4.00312 48.6777 4.38446 49.1482 4.38446Z" fill="#02B0AF"/>
<path d="M7.19518 4.91513L4.38493 0.401562C4.22946 0.151855 3.95602 0 3.66198 0C3.36784 0 3.0945 0.151855 2.93903 0.401562L0.128685 4.91513C-0.0347917 5.17772 -0.0430924 5.50829 0.107103 5.7787C0.257298 6.04911 0.542356 6.21688 0.851632 6.21688H2.81032V9.7782C2.81032 10.2485 3.19167 10.6299 3.66198 10.6299C4.13229 10.6299 4.51364 10.2485 4.51364 9.7782V6.21688H6.47232C6.7816 6.21688 7.06666 6.04921 7.21685 5.7787C7.36705 5.50819 7.35875 5.17763 7.19518 4.91513ZM2.38513 4.51357L3.66188 2.46298L4.93864 4.51357H2.38513Z" fill="#02B0AF"/>
<path d="M7.21676 34.4642C7.06656 34.1938 6.7815 34.0261 6.47223 34.0261H4.51354V12.0492C4.51354 11.5789 4.13219 11.1975 3.66188 11.1975C3.19157 11.1975 2.81022 11.5789 2.81022 12.0492V34.026H0.851632C0.542356 34.026 0.257298 34.1937 0.107103 34.4642C-0.0430924 34.7347 -0.0347917 35.0652 0.128685 35.3277L2.93893 39.8413C3.0944 40.091 3.36774 40.2429 3.66188 40.2429C3.95612 40.2429 4.22946 40.091 4.38483 39.8413L7.19508 35.3277C7.35875 35.065 7.36705 34.7346 7.21676 34.4642ZM3.66198 37.78L2.38513 35.7294H4.93864L3.66198 37.78Z" fill="#02B0AF"/>
<path d="M49.5983 45.615L45.0847 42.8048C44.8221 42.6413 44.4915 42.6331 44.2211 42.7832C43.9507 42.9334 43.783 43.2185 43.783 43.5277V45.4864H15.9737V43.5277C15.9737 43.2185 15.806 42.9334 15.5356 42.7832C15.2652 42.6331 14.9348 42.6413 14.672 42.8048L10.1584 45.615C9.90869 45.7705 9.75684 46.0439 9.75684 46.338C9.75684 46.6321 9.90869 46.9055 10.1584 47.0609L14.672 49.8712C14.8095 49.9568 14.9657 49.9998 15.1221 49.9998C15.2643 49.9998 15.4067 49.9643 15.5355 49.8928C15.806 49.7426 15.9737 49.4575 15.9737 49.1482V47.1895H43.7829V49.1482C43.7829 49.4575 43.9508 49.7426 44.221 49.8928C44.3499 49.9644 44.4923 49.9998 44.6346 49.9998C44.7909 49.9998 44.9472 49.9567 45.0847 49.8712L49.5983 47.0609C49.848 46.9055 49.9998 46.6321 49.9998 46.338C49.9998 46.0438 49.848 45.7705 49.5983 45.615ZM14.2704 47.6147L12.2198 46.338L14.2704 45.0612V47.6147ZM45.4863 47.6147V45.0612L47.537 46.338L45.4863 47.6147Z" fill="#02B0AF"/>
</g>
<defs>
<clipPath id="clip0_225_2154">
<rect width="50" height="50" fill="white"/>
</clipPath>
</defs>
</svg>
